# xmcd
#
# Track frame offsets:
#	150
#	13624
#	40940
#	53986
#	87976
#	101980
#	119108
#	133301
# Disc length: 2068 seconds
# Revision: 1
# Processed by: cddbd v1.5.1PL0 Copyright (c) Steve Scherf et al.
#
# Submitted via: libkcddb 0.20
#
DISCID=75081208
DTITLE=Innovators - Box of Blues
DYEAR=2005
DGENRE=Rock and Roll
TTITLE0=Burnin' Both Ends
TTITLE1=Perfect Strangers
TTITLE2=Box of Blues
TTITLE3=1000 Sinners
TTITLE4=Alright
TTITLE5=Did You Ever Love Me?
TTITLE6=Leave My Love Alone
TTITLE7=Tomorrow's Soon Enough
EXTD=
EXTT0=
EXTT1=
EXTT2=
EXTT3=
EXTT4=
EXTT5=
EXTT6=
EXTT7=
PLAYORDER=
